<mxfile host="Electron" modified="2023-12-25T07:30:13.427Z" agent="Mozilla/5.0 (Macintosh; Intel Mac OS X 10_15_7) AppleWebKit/537.36 (KHTML, like Gecko) draw.io/21.4.0 Chrome/112.0.5615.204 Electron/24.5.1 Safari/537.36" etag="HaVOdChWSP1G-1Ei1Mwh" version="21.4.0" type="device" pages="4">
  <diagram name="Page-1" id="mHPG4N2z4Dm4UFDI-TX_">
    <mxGraphModel dx="857" dy="571" grid="1" gridSize="10" guides="1" tooltips="1" connect="1" arrows="1" fold="1" page="1" pageScale="1" pageWidth="827" pageHeight="1169" math="0" shadow="0">
      <root>
        <mxCell id="0" />
        <mxCell id="1" parent="0" />
        <mxCell id="KKteGzP_k2SxaHVoLAUS-1" value="AWS" style="ellipse;shape=cloud;whiteSpace=wrap;html=1;fontStyle=1;fontSize=20;" vertex="1" parent="1">
          <mxGeometry x="410" y="230" width="360" height="230" as="geometry" />
        </mxCell>
        <mxCell id="KKteGzP_k2SxaHVoLAUS-3" style="edgeStyle=orthogonalEdgeStyle;rounded=0;orthogonalLoop=1;jettySize=auto;html=1;entryX=0.07;entryY=0.4;entryDx=0;entryDy=0;entryPerimeter=0;" edge="1" parent="1" source="KKteGzP_k2SxaHVoLAUS-2" target="KKteGzP_k2SxaHVoLAUS-1">
          <mxGeometry relative="1" as="geometry" />
        </mxCell>
        <mxCell id="KKteGzP_k2SxaHVoLAUS-2" value="management&amp;nbsp;&lt;br style=&quot;font-size: 14px;&quot;&gt;console" style="rounded=0;whiteSpace=wrap;html=1;fontStyle=1;fontSize=14;" vertex="1" parent="1">
          <mxGeometry x="100" y="220" width="140" height="60" as="geometry" />
        </mxCell>
        <mxCell id="KKteGzP_k2SxaHVoLAUS-4" value="Solution Architect, User" style="text;html=1;strokeColor=none;fillColor=none;align=center;verticalAlign=middle;whiteSpace=wrap;rounded=0;" vertex="1" parent="1">
          <mxGeometry x="100" y="190" width="140" height="30" as="geometry" />
        </mxCell>
        <mxCell id="KKteGzP_k2SxaHVoLAUS-8" style="edgeStyle=orthogonalEdgeStyle;rounded=0;orthogonalLoop=1;jettySize=auto;html=1;entryX=0.107;entryY=0.699;entryDx=0;entryDy=0;entryPerimeter=0;" edge="1" parent="1" source="KKteGzP_k2SxaHVoLAUS-5" target="KKteGzP_k2SxaHVoLAUS-1">
          <mxGeometry relative="1" as="geometry" />
        </mxCell>
        <mxCell id="KKteGzP_k2SxaHVoLAUS-5" value="CLI" style="rounded=0;whiteSpace=wrap;html=1;fontStyle=1;fontSize=14;" vertex="1" parent="1">
          <mxGeometry x="100" y="360" width="140" height="60" as="geometry" />
        </mxCell>
        <mxCell id="KKteGzP_k2SxaHVoLAUS-6" value="Operations Team" style="text;html=1;strokeColor=none;fillColor=none;align=center;verticalAlign=middle;whiteSpace=wrap;rounded=0;" vertex="1" parent="1">
          <mxGeometry x="100" y="330" width="140" height="30" as="geometry" />
        </mxCell>
        <mxCell id="KKteGzP_k2SxaHVoLAUS-11" style="edgeStyle=orthogonalEdgeStyle;rounded=0;orthogonalLoop=1;jettySize=auto;html=1;entryX=0.161;entryY=0.804;entryDx=0;entryDy=0;entryPerimeter=0;" edge="1" parent="1" source="KKteGzP_k2SxaHVoLAUS-9" target="KKteGzP_k2SxaHVoLAUS-1">
          <mxGeometry relative="1" as="geometry" />
        </mxCell>
        <mxCell id="KKteGzP_k2SxaHVoLAUS-9" value="AWS SDK" style="rounded=0;whiteSpace=wrap;html=1;fontStyle=1;fontSize=14;" vertex="1" parent="1">
          <mxGeometry x="100" y="500" width="140" height="60" as="geometry" />
        </mxCell>
        <mxCell id="KKteGzP_k2SxaHVoLAUS-10" value="Developers" style="text;html=1;strokeColor=none;fillColor=none;align=center;verticalAlign=middle;whiteSpace=wrap;rounded=0;" vertex="1" parent="1">
          <mxGeometry x="100" y="470" width="140" height="30" as="geometry" />
        </mxCell>
      </root>
    </mxGraphModel>
  </diagram>
  <diagram id="HOOJLoGayieNwqSk_u6T" name="Page-2">
    <mxGraphModel dx="857" dy="571" grid="1" gridSize="10" guides="1" tooltips="1" connect="1" arrows="1" fold="1" page="1" pageScale="1" pageWidth="827" pageHeight="1169" math="0" shadow="0">
      <root>
        <mxCell id="0" />
        <mxCell id="1" parent="0" />
        <mxCell id="a-ZfsTt0dS7TIOCErsa3-8" style="edgeStyle=orthogonalEdgeStyle;rounded=0;orthogonalLoop=1;jettySize=auto;html=1;" edge="1" parent="1" source="a-ZfsTt0dS7TIOCErsa3-1" target="a-ZfsTt0dS7TIOCErsa3-7">
          <mxGeometry relative="1" as="geometry" />
        </mxCell>
        <mxCell id="a-ZfsTt0dS7TIOCErsa3-1" value="" style="rounded=0;whiteSpace=wrap;html=1;" vertex="1" parent="1">
          <mxGeometry x="190" y="225" width="210" height="140" as="geometry" />
        </mxCell>
        <mxCell id="a-ZfsTt0dS7TIOCErsa3-2" value="id_rsa" style="rounded=0;whiteSpace=wrap;html=1;fontStyle=1" vertex="1" parent="1">
          <mxGeometry x="270" y="280" width="110" height="30" as="geometry" />
        </mxCell>
        <mxCell id="a-ZfsTt0dS7TIOCErsa3-4" value="id_rsa.pub" style="rounded=0;whiteSpace=wrap;html=1;fontStyle=1" vertex="1" parent="1">
          <mxGeometry x="270" y="315" width="110" height="30" as="geometry" />
        </mxCell>
        <mxCell id="a-ZfsTt0dS7TIOCErsa3-5" value="~/.ssh" style="rounded=0;whiteSpace=wrap;html=1;fontStyle=1" vertex="1" parent="1">
          <mxGeometry x="210" y="240" width="80" height="30" as="geometry" />
        </mxCell>
        <mxCell id="a-ZfsTt0dS7TIOCErsa3-6" value="172.18.4.8" style="text;html=1;strokeColor=none;fillColor=none;align=center;verticalAlign=middle;whiteSpace=wrap;rounded=0;fontStyle=1" vertex="1" parent="1">
          <mxGeometry x="190" y="370" width="210" height="30" as="geometry" />
        </mxCell>
        <mxCell id="a-ZfsTt0dS7TIOCErsa3-11" style="edgeStyle=orthogonalEdgeStyle;rounded=0;orthogonalLoop=1;jettySize=auto;html=1;" edge="1" parent="1" source="a-ZfsTt0dS7TIOCErsa3-7" target="a-ZfsTt0dS7TIOCErsa3-9">
          <mxGeometry relative="1" as="geometry" />
        </mxCell>
        <mxCell id="a-ZfsTt0dS7TIOCErsa3-7" value="network" style="ellipse;shape=cloud;whiteSpace=wrap;html=1;" vertex="1" parent="1">
          <mxGeometry x="460" y="255" width="120" height="80" as="geometry" />
        </mxCell>
        <mxCell id="a-ZfsTt0dS7TIOCErsa3-9" value="" style="rounded=0;whiteSpace=wrap;html=1;" vertex="1" parent="1">
          <mxGeometry x="630" y="225" width="210" height="140" as="geometry" />
        </mxCell>
        <mxCell id="a-ZfsTt0dS7TIOCErsa3-10" value="172.18.4.87" style="text;html=1;strokeColor=none;fillColor=none;align=center;verticalAlign=middle;whiteSpace=wrap;rounded=0;fontStyle=1" vertex="1" parent="1">
          <mxGeometry x="630" y="370" width="210" height="30" as="geometry" />
        </mxCell>
        <mxCell id="a-ZfsTt0dS7TIOCErsa3-12" value="ssh user1@172.18.4.87" style="text;html=1;strokeColor=none;fillColor=none;align=center;verticalAlign=middle;whiteSpace=wrap;rounded=0;fontStyle=1" vertex="1" parent="1">
          <mxGeometry x="435" y="225" width="170" height="30" as="geometry" />
        </mxCell>
        <mxCell id="a-ZfsTt0dS7TIOCErsa3-13" value="~/.ssh" style="rounded=0;whiteSpace=wrap;html=1;fontStyle=1" vertex="1" parent="1">
          <mxGeometry x="650" y="240" width="80" height="30" as="geometry" />
        </mxCell>
        <mxCell id="a-ZfsTt0dS7TIOCErsa3-14" value="authorized_keys" style="rounded=0;whiteSpace=wrap;html=1;fontStyle=1" vertex="1" parent="1">
          <mxGeometry x="680" y="280" width="140" height="30" as="geometry" />
        </mxCell>
      </root>
    </mxGraphModel>
  </diagram>
  <diagram id="AnrxL2DpP9SI9wQ8aX4j" name="Page-3">
    <mxGraphModel dx="710" dy="473" grid="1" gridSize="10" guides="1" tooltips="1" connect="1" arrows="1" fold="1" page="1" pageScale="1" pageWidth="827" pageHeight="1169" math="0" shadow="0">
      <root>
        <mxCell id="0" />
        <mxCell id="1" parent="0" />
        <mxCell id="OkHpgHJUrFSCiJLchpFJ-10" style="edgeStyle=orthogonalEdgeStyle;rounded=0;orthogonalLoop=1;jettySize=auto;html=1;entryX=0;entryY=0.5;entryDx=0;entryDy=0;" edge="1" parent="1" source="OkHpgHJUrFSCiJLchpFJ-1" target="OkHpgHJUrFSCiJLchpFJ-2">
          <mxGeometry relative="1" as="geometry" />
        </mxCell>
        <mxCell id="OkHpgHJUrFSCiJLchpFJ-1" value="" style="ellipse;whiteSpace=wrap;html=1;aspect=fixed;" vertex="1" parent="1">
          <mxGeometry x="475" y="255" width="140" height="140" as="geometry" />
        </mxCell>
        <mxCell id="OkHpgHJUrFSCiJLchpFJ-2" value="EC2 Instance&lt;br&gt;(4000)" style="rounded=0;whiteSpace=wrap;html=1;fontStyle=1;fontSize=13;" vertex="1" parent="1">
          <mxGeometry x="645" y="295" width="110" height="60" as="geometry" />
        </mxCell>
        <mxCell id="OkHpgHJUrFSCiJLchpFJ-3" value="Security Group" style="text;html=1;strokeColor=none;fillColor=none;align=center;verticalAlign=middle;whiteSpace=wrap;rounded=0;fontStyle=1;fontSize=14;" vertex="1" parent="1">
          <mxGeometry x="467.5" y="400" width="155" height="30" as="geometry" />
        </mxCell>
        <mxCell id="OkHpgHJUrFSCiJLchpFJ-5" style="edgeStyle=orthogonalEdgeStyle;rounded=0;orthogonalLoop=1;jettySize=auto;html=1;entryX=0;entryY=0.5;entryDx=0;entryDy=0;" edge="1" parent="1" source="OkHpgHJUrFSCiJLchpFJ-4" target="OkHpgHJUrFSCiJLchpFJ-1">
          <mxGeometry relative="1" as="geometry" />
        </mxCell>
        <mxCell id="OkHpgHJUrFSCiJLchpFJ-21" style="edgeStyle=orthogonalEdgeStyle;rounded=0;orthogonalLoop=1;jettySize=auto;html=1;entryX=0;entryY=0.5;entryDx=0;entryDy=0;" edge="1" parent="1" source="OkHpgHJUrFSCiJLchpFJ-4" target="OkHpgHJUrFSCiJLchpFJ-16">
          <mxGeometry relative="1" as="geometry">
            <Array as="points">
              <mxPoint x="365" y="550" />
            </Array>
          </mxGeometry>
        </mxCell>
        <mxCell id="OkHpgHJUrFSCiJLchpFJ-4" value="internet" style="ellipse;shape=cloud;whiteSpace=wrap;html=1;fontStyle=1" vertex="1" parent="1">
          <mxGeometry x="305" y="285" width="120" height="80" as="geometry" />
        </mxCell>
        <mxCell id="OkHpgHJUrFSCiJLchpFJ-7" value="user" style="shape=umlActor;verticalLabelPosition=bottom;verticalAlign=top;html=1;outlineConnect=0;" vertex="1" parent="1">
          <mxGeometry x="165" y="370" width="30" height="60" as="geometry" />
        </mxCell>
        <mxCell id="OkHpgHJUrFSCiJLchpFJ-14" style="edgeStyle=orthogonalEdgeStyle;rounded=0;orthogonalLoop=1;jettySize=auto;html=1;entryX=0.083;entryY=0.55;entryDx=0;entryDy=0;entryPerimeter=0;" edge="1" parent="1" source="OkHpgHJUrFSCiJLchpFJ-8" target="OkHpgHJUrFSCiJLchpFJ-4">
          <mxGeometry relative="1" as="geometry" />
        </mxCell>
        <mxCell id="OkHpgHJUrFSCiJLchpFJ-8" value="http://&amp;lt;ip&amp;gt;:4000" style="rounded=0;whiteSpace=wrap;html=1;fontStyle=1" vertex="1" parent="1">
          <mxGeometry x="120" y="299" width="120" height="60" as="geometry" />
        </mxCell>
        <mxCell id="OkHpgHJUrFSCiJLchpFJ-12" value="4000" style="rounded=0;whiteSpace=wrap;html=1;fillColor=#d5e8d4;strokeColor=#82b366;" vertex="1" parent="1">
          <mxGeometry x="520" y="329" width="50" height="30" as="geometry" />
        </mxCell>
        <mxCell id="OkHpgHJUrFSCiJLchpFJ-13" value="22" style="rounded=0;whiteSpace=wrap;html=1;fillColor=#d5e8d4;strokeColor=#82b366;" vertex="1" parent="1">
          <mxGeometry x="520" y="295" width="50" height="30" as="geometry" />
        </mxCell>
        <mxCell id="OkHpgHJUrFSCiJLchpFJ-15" style="edgeStyle=orthogonalEdgeStyle;rounded=0;orthogonalLoop=1;jettySize=auto;html=1;entryX=0;entryY=0.5;entryDx=0;entryDy=0;" edge="1" parent="1" source="OkHpgHJUrFSCiJLchpFJ-16" target="OkHpgHJUrFSCiJLchpFJ-17">
          <mxGeometry relative="1" as="geometry" />
        </mxCell>
        <mxCell id="OkHpgHJUrFSCiJLchpFJ-16" value="" style="ellipse;whiteSpace=wrap;html=1;aspect=fixed;" vertex="1" parent="1">
          <mxGeometry x="475" y="480" width="140" height="140" as="geometry" />
        </mxCell>
        <mxCell id="OkHpgHJUrFSCiJLchpFJ-17" value="EC2 Instance&lt;br&gt;(80)" style="rounded=0;whiteSpace=wrap;html=1;fontStyle=1;fontSize=13;" vertex="1" parent="1">
          <mxGeometry x="645" y="520" width="110" height="60" as="geometry" />
        </mxCell>
        <mxCell id="OkHpgHJUrFSCiJLchpFJ-18" value="Security Group" style="text;html=1;strokeColor=none;fillColor=none;align=center;verticalAlign=middle;whiteSpace=wrap;rounded=0;fontStyle=1;fontSize=14;" vertex="1" parent="1">
          <mxGeometry x="467.5" y="625" width="155" height="30" as="geometry" />
        </mxCell>
        <mxCell id="OkHpgHJUrFSCiJLchpFJ-19" value="80" style="rounded=0;whiteSpace=wrap;html=1;fillColor=#d5e8d4;strokeColor=#82b366;" vertex="1" parent="1">
          <mxGeometry x="520" y="554" width="50" height="30" as="geometry" />
        </mxCell>
        <mxCell id="OkHpgHJUrFSCiJLchpFJ-20" value="22" style="rounded=0;whiteSpace=wrap;html=1;fillColor=#d5e8d4;strokeColor=#82b366;" vertex="1" parent="1">
          <mxGeometry x="520" y="520" width="50" height="30" as="geometry" />
        </mxCell>
      </root>
    </mxGraphModel>
  </diagram>
  <diagram id="pLuSgCB99yimRVFvUrQu" name="Page-4">
    <mxGraphModel dx="1242" dy="828" grid="1" gridSize="10" guides="1" tooltips="1" connect="1" arrows="1" fold="1" page="1" pageScale="1" pageWidth="827" pageHeight="1169" math="0" shadow="0">
      <root>
        <mxCell id="0" />
        <mxCell id="1" parent="0" />
        <mxCell id="8Zw5_5hquaKMXfTYgrja-2" value="" style="rounded=0;whiteSpace=wrap;html=1;" vertex="1" parent="1">
          <mxGeometry x="34" y="110" width="760" height="450" as="geometry" />
        </mxCell>
        <mxCell id="8Zw5_5hquaKMXfTYgrja-4" value="" style="ellipse;shape=cloud;whiteSpace=wrap;html=1;fillColor=#dae8fc;strokeColor=#6c8ebf;" vertex="1" parent="1">
          <mxGeometry x="54" y="120" width="336" height="220" as="geometry" />
        </mxCell>
        <mxCell id="8Zw5_5hquaKMXfTYgrja-10" value="" style="ellipse;whiteSpace=wrap;html=1;aspect=fixed;fillColor=#f8cecc;strokeColor=#b85450;" vertex="1" parent="1">
          <mxGeometry x="220" y="190" width="80" height="80" as="geometry" />
        </mxCell>
        <mxCell id="8Zw5_5hquaKMXfTYgrja-3" value="AWS Cloud" style="text;html=1;strokeColor=none;fillColor=none;align=center;verticalAlign=middle;whiteSpace=wrap;rounded=0;fontStyle=1;fontSize=22;" vertex="1" parent="1">
          <mxGeometry x="351" y="570" width="126" height="30" as="geometry" />
        </mxCell>
        <mxCell id="8Zw5_5hquaKMXfTYgrja-5" value="VPC - user1" style="text;html=1;strokeColor=none;fillColor=none;align=center;verticalAlign=middle;whiteSpace=wrap;rounded=0;fontStyle=1;fontSize=18;" vertex="1" parent="1">
          <mxGeometry x="190" y="350" width="106" height="30" as="geometry" />
        </mxCell>
        <mxCell id="8Zw5_5hquaKMXfTYgrja-6" value="EC2 &lt;br&gt;Instance" style="rounded=0;whiteSpace=wrap;html=1;fillColor=#fff2cc;strokeColor=#d6b656;" vertex="1" parent="1">
          <mxGeometry x="230" y="210" width="60" height="40" as="geometry" />
        </mxCell>
        <mxCell id="8Zw5_5hquaKMXfTYgrja-7" value="" style="ellipse;shape=cloud;whiteSpace=wrap;html=1;fillColor=#dae8fc;strokeColor=#6c8ebf;" vertex="1" parent="1">
          <mxGeometry x="420" y="280" width="336" height="220" as="geometry" />
        </mxCell>
        <mxCell id="8Zw5_5hquaKMXfTYgrja-8" value="VPC - user2" style="text;html=1;strokeColor=none;fillColor=none;align=center;verticalAlign=middle;whiteSpace=wrap;rounded=0;fontStyle=1;fontSize=18;" vertex="1" parent="1">
          <mxGeometry x="556" y="500" width="106" height="30" as="geometry" />
        </mxCell>
        <mxCell id="8Zw5_5hquaKMXfTYgrja-11" value="" style="ellipse;whiteSpace=wrap;html=1;aspect=fixed;fillColor=#f8cecc;strokeColor=#b85450;" vertex="1" parent="1">
          <mxGeometry x="120" y="190" width="80" height="80" as="geometry" />
        </mxCell>
        <mxCell id="8Zw5_5hquaKMXfTYgrja-12" value="EC2 &lt;br&gt;Instance" style="rounded=0;whiteSpace=wrap;html=1;fillColor=#fff2cc;strokeColor=#d6b656;" vertex="1" parent="1">
          <mxGeometry x="130" y="210" width="60" height="40" as="geometry" />
        </mxCell>
        <mxCell id="8Zw5_5hquaKMXfTYgrja-13" value="NACL" style="rounded=0;whiteSpace=wrap;html=1;fillColor=#e51400;fontColor=#ffffff;strokeColor=#B20000;" vertex="1" parent="1">
          <mxGeometry x="320" y="210" width="84" height="40" as="geometry" />
        </mxCell>
        <mxCell id="8Zw5_5hquaKMXfTYgrja-14" value="" style="ellipse;whiteSpace=wrap;html=1;aspect=fixed;fillColor=#f8cecc;strokeColor=#b85450;" vertex="1" parent="1">
          <mxGeometry x="520" y="360" width="80" height="80" as="geometry" />
        </mxCell>
        <mxCell id="8Zw5_5hquaKMXfTYgrja-15" value="EC2 &lt;br&gt;Instance" style="rounded=0;whiteSpace=wrap;html=1;fillColor=#fff2cc;strokeColor=#d6b656;" vertex="1" parent="1">
          <mxGeometry x="530" y="380" width="60" height="40" as="geometry" />
        </mxCell>
        <mxCell id="8Zw5_5hquaKMXfTYgrja-16" value="NACL" style="rounded=0;whiteSpace=wrap;html=1;fillColor=#e51400;fontColor=#ffffff;strokeColor=#B20000;" vertex="1" parent="1">
          <mxGeometry x="530" y="280" width="84" height="40" as="geometry" />
        </mxCell>
        <mxCell id="8Zw5_5hquaKMXfTYgrja-17" value="S3" style="shape=trapezoid;perimeter=trapezoidPerimeter;whiteSpace=wrap;html=1;fixedSize=1;size=16;rotation=-180;fillColor=#1ba1e2;fontColor=#ffffff;strokeColor=#006EAF;" vertex="1" parent="1">
          <mxGeometry x="614" y="370" width="66" height="50" as="geometry" />
        </mxCell>
        <mxCell id="8Zw5_5hquaKMXfTYgrja-18" value="request&lt;br&gt;4000" style="rounded=0;whiteSpace=wrap;html=1;" vertex="1" parent="1">
          <mxGeometry x="160" y="620" width="60" height="31" as="geometry" />
        </mxCell>
      </root>
    </mxGraphModel>
  </diagram>
</mxfile>
